<mxfile host="app.diagrams.net" modified="2022-01-27T14:32:31.870Z" agent="5.0 (Windows NT 10.0; Win64; x64) AppleWebKit/537.36 (KHTML, like Gecko) Chrome/97.0.4692.99 Safari/537.36 Edg/97.0.1072.69" etag="OFbmziFKeu0FAsSMuf3K" version="16.4.8" type="github">
  <diagram id="GlNpoR65qKVSwg_ja5b7" name="Page-1">
    <mxGraphModel dx="1711" dy="1182" grid="1" gridSize="10" guides="1" tooltips="1" connect="1" arrows="1" fold="1" page="1" pageScale="1" pageWidth="827" pageHeight="1169" math="0" shadow="0">
      <root>
        <mxCell id="0" />
        <mxCell id="1" parent="0" />
        <mxCell id="l-w22jun4BVGwJeJByUf-1" value="" style="strokeWidth=1;shadow=0;dashed=0;align=center;html=1;shape=mxgraph.mockup.containers.browserWindow;rSize=0;strokeColor=#666666;strokeColor2=#008cff;strokeColor3=#c4c4c4;mainText=,;recursiveResize=0;" vertex="1" parent="1">
          <mxGeometry x="40" y="50" width="1570" height="1090" as="geometry" />
        </mxCell>
        <mxCell id="l-w22jun4BVGwJeJByUf-2" value="Page 1" style="strokeWidth=1;shadow=0;dashed=0;align=center;html=1;shape=mxgraph.mockup.containers.anchor;fontSize=17;fontColor=#666666;align=left;" vertex="1" parent="l-w22jun4BVGwJeJByUf-1">
          <mxGeometry x="60" y="12" width="110" height="26" as="geometry" />
        </mxCell>
        <mxCell id="l-w22jun4BVGwJeJByUf-3" value="https://www.draw.io" style="strokeWidth=1;shadow=0;dashed=0;align=center;html=1;shape=mxgraph.mockup.containers.anchor;rSize=0;fontSize=17;fontColor=#666666;align=left;" vertex="1" parent="l-w22jun4BVGwJeJByUf-1">
          <mxGeometry x="130" y="60" width="250" height="26" as="geometry" />
        </mxCell>
        <mxCell id="l-w22jun4BVGwJeJByUf-4" value="Ver/Editalles detalles del paciente" style="text;strokeColor=none;fillColor=none;html=1;fontSize=24;fontStyle=1;verticalAlign=middle;align=center;" vertex="1" parent="l-w22jun4BVGwJeJByUf-1">
          <mxGeometry x="50" y="180" width="430" height="40" as="geometry" />
        </mxCell>
        <mxCell id="l-w22jun4BVGwJeJByUf-5" style="edgeStyle=orthogonalEdgeStyle;rounded=0;orthogonalLoop=1;jettySize=auto;html=1;exitX=1;exitY=0;exitDx=0;exitDy=0;entryX=1;entryY=0.25;entryDx=0;entryDy=0;" edge="1" parent="l-w22jun4BVGwJeJByUf-1" source="l-w22jun4BVGwJeJByUf-4" target="l-w22jun4BVGwJeJByUf-4">
          <mxGeometry relative="1" as="geometry" />
        </mxCell>
      </root>
    </mxGraphModel>
  </diagram>
</mxfile>
